inDegrees=no
num_controls=7
num_derivatives=13
num_iterations=164
num_multipliers=7
num_parameters=0
num_slacks=7
num_states=26
objective=5.308553
objective_accelerations=0.424283
objective_balance=0.006905
objective_effort=0.378389
objective_height=4.423874
objective_ligament=0.075102
solver_duration=1364.940191
status=Solve_Succeeded
success=true
DataType=double
version=3
OpenSimVersion=4.4-2022-07-23-0e9fedc
endheader
time	/jointset/ground_pelvis/pelvis_tilt/value	/jointset/ground_pelvis/pelvis_tx/value	/jointset/ground_pelvis/pelvis_ty/value	/jointset/hip_r/hip_flexion_r/value	/jointset/hip_r/hip_adduction_r/value	/jointset/hip_r/hip_rotation_r/value	/jointset/back/lumbar_extension/value	/jointset/patellofemoral_r/patellar_flexion_r/value	/jointset/knee_r/knee_flexion_r/value	/jointset/knee_r/knee_adduction_r/value	/jointset/knee_r/knee_rotation_r/value	/jointset/ankle_r/ankle_angle_r/value	/jointset/subtalar_r/subtalar_angle_r/value	/jointset/ground_pelvis/pelvis_tilt/speed	/jointset/ground_pelvis/pelvis_tx/speed	/jointset/ground_pelvis/pelvis_ty/speed	/jointset/hip_r/hip_flexion_r/speed	/jointset/hip_r/hip_adduction_r/speed	/jointset/hip_r/hip_rotation_r/speed	/jointset/back/lumbar_extension/speed	/jointset/patellofemoral_r/patellar_flexion_r/speed	/jointset/knee_r/knee_flexion_r/speed	/jointset/knee_r/knee_adduction_r/speed	/jointset/knee_r/knee_rotation_r/speed	/jointset/ankle_r/ankle_angle_r/speed	/jointset/subtalar_r/subtalar_angle_r/speed	/forceset/tau_hip_flexion_r	/forceset/tau_hip_adduction_r	/forceset/tau_hip_rotation_r	/forceset/tau_knee_flexion_r	/forceset/tau_ankle_angle_r	/forceset/tau_subtalar_angle_r	/forceset/tau_lumbar_extension	lambda_cid13_p0	lambda_cid14_p0	lambda_cid14_p1	lambda_cid14_p2	lambda_cid14_p3	lambda_cid14_p4	lambda_cid14_p5	/jointset/ground_pelvis/pelvis_tilt/accel	/jointset/ground_pelvis/pelvis_tx/accel	/jointset/ground_pelvis/pelvis_ty/accel	/jointset/hip_r/hip_flexion_r/accel	/jointset/hip_r/hip_adduction_r/accel	/jointset/hip_r/hip_rotation_r/accel	/jointset/back/lumbar_extension/accel	/jointset/patellofemoral_r/patellar_flexion_r/accel	/jointset/knee_r/knee_flexion_r/accel	/jointset/knee_r/knee_adduction_r/accel	/jointset/knee_r/knee_rotation_r/accel	/jointset/ankle_r/ankle_angle_r/accel	/jointset/subtalar_r/subtalar_angle_r/accel	gamma_cid13_p0	gamma_cid14_p0	gamma_cid14_p1	gamma_cid14_p2	gamma_cid14_p3	gamma_cid14_p4	gamma_cid14_p5
0.5	-0.07687672148804386	0.05128997799085786	0.8383132250164901	0.7233468907039926	-0.2484819044109404	-0.08308407788450667	-0.6309619939475263	0.8562670094346349	0.8562670094346126	0.060290877862192	0.1743727816559371	0.2829837553062085	0.09450243903857655	-0.1994074026005956	-0.1598987914831418	-0.3682786968619243	1.413985308477077	-0.05335696033606797	0.4389470758697812	-0.7419772493715959	1.671474091654465	1.671474091654463	-0.07500932091953715	-0.002085563015458411	0.5225700438576439	0.09087834686005915	-0.1590589791543157	-0.001339076342526739	0.03066688059498751	-0.2817113396954037	-0.0121837322358113	-0.009651617994472691	0.2165334080089265	-13.1652113721302	-47.1680949861975	-10.1228560858978	-0.6229234370761684	-1.845847924387216	-647.804555398306	63.34180705635855	0.1352951165993156	0.4306971680258701	-0.2864338299174092	-1.027755901732671	0.1330025005214508	-0.09106929044044884	1.536813411575627	-1.212048962621852	-1.212048962621851	0.5156275369970765	-0.01866827521857929	-0.363769607663774	0.1244580161091078	-4.384370478322471e-08	-2.201621051315637e-09	5.105981607569285e-07	-1.919487637867703e-07	-5.746276465183244e-08	-5.450505178373671e-08	3.632120205924445e-07
0.51	-0.07886377324327178	0.04971265278547087	0.8346168912064295	0.7374334798209466	-0.2490089451724857	-0.07870005722363707	-0.6383040278511729	0.8729188201650256	0.8729188201650324	0.05956660483421529	0.1743516892198251	0.288190408642075	0.09541702991802045	-0.1979705265735963	-0.1555537146744812	-0.3709080824093137	1.403141716422858	-0.05204119399800488	0.4378020264317218	-0.726346225818329	1.658662062350847	1.658662062350842	-0.0698667074525636	-0.002126466587239049	0.5186882165218886	0.092035277461417	-0.1640090372096315	-0.0005686714248366851	0.03138494438694783	-0.2857576230144438	-0.01377992752470804	-0.009245460110932318	0.2213700968983642	-12.29407759322397	-47.88377094266257	-10.17338878697137	-0.4987954078505974	-1.680756643067701	-651.3207442009444	63.67742347712613	0.1527467608896529	0.4382811078980479	-0.2392033714640033	-1.141280920379254	0.1323744752019748	-0.1345372417588469	1.588742657785955	-1.349670549198317	-1.349670549198662	0.510433323218849	0.00414868572660995	-0.4112625304440214	0.1106886372126053	-3.815732273335389e-08	5.604132246470291e-09	5.179204734285506e-07	-1.426665826196628e-07	-6.264171057918782e-08	-4.595178458322124e-08	3.614303005498521e-07
0.52	-0.08083548365518299	0.04817915198229346	0.8308966610500317	0.7514059090047496	-0.2495225261156905	-0.07432914995141227	-0.6454872523531673	0.8894357324754013	0.8894357324754041	0.05889312895524757	0.1743303777647593	0.2933560690578029	0.09634306571449182	-0.1963391339410679	-0.1511339110412285	-0.3730579661293095	1.391153321844127	-0.05066499666981066	0.4363243981428614	-0.710215369041749	1.644494407648571	1.644494407648564	-0.06484989111874251	-0.002129366803648988	0.5143714598296335	0.09316733026531776	-0.1689590952649529	0.0002017334928432216	0.03210300817892148	-0.2898039063334844	-0.01537612281360904	-0.008839302227408932	0.2262067857878007	-11.42400099465485	-48.60318870047788	-10.22294734135129	-0.3766842037366228	-1.529226997031492	-654.897378784575	64.04068488685134	0.1741984377048504	0.4456425329444964	-0.1905334644386559	-1.256716406635103	0.1450886985476142	-0.1575850606007812	1.636780056238148	-1.48317404235332	-1.48317404235332	0.4904681103666172	-0.01106760414428464	-0.4507554789634482	0.1194824566176845	-3.265305205100445e-08	1.262865354230955e-08	5.261702970782573e-07	-9.590417356632525e-08	-6.72925992384545e-08	-3.913147892674068e-08	3.627734809965142e-07
0.53	-0.08278993734505724	0.0466901821850487	0.8271573564168415	0.7652528287018073	-0.250022011298821	-0.06997484847339762	-0.6525067509905236	0.9058042860407799	0.9058042860408132	0.05826892766969324	0.1743092439703142	0.2984764418477882	0.09728036167155325	-0.1945212844820432	-0.1466512704867861	-0.3747201448672703	1.378046405846244	-0.04922208021551606	0.4344767469973278	-0.6936095110643954	1.628997984009774	1.628997984009774	-0.06002096027149932	-0.00209430461181111	0.5096344816544639	0.09428848484032802	-0.173808265027595	0.0009123093691807024	0.03280690765004588	-0.2938863225448657	-0.0169805940167767	-0.008447006388239272	0.2309458558360417	-10.55761409303536	-49.3294308947324	-10.27955804673101	-0.253634531207827	-1.339070037780069	-658.495047063437	64.41384806675642	0.1901273481518033	0.4508775582548898	-0.1416448420307097	-1.365309296511368	0.1454111861620755	-0.2072770605229868	1.683715772946486	-1.615618785256398	-1.615618785255579	0.4745881079158054	0.01125744842966921	-0.495473714230158	0.1080000087593972	-2.866382597687768e-08	2.24218134196158e-08	5.997677678126553e-07	-4.193738665478826e-08	-7.962568562035809e-08	-3.613015163472918e-08	4.111019921939004e-07
0.54	-0.08472530271069249	0.04524629934166108	0.8234039130435604	0.7789631532188722	-0.2505067637039401	-0.06564080789064936	-0.6593579456272105	0.9220113269176644	0.9220113269176918	0.05769211219982086	0.1742885536612886	0.3035473839105362	0.09822878278452943	-0.1925214690970421	-0.1421165202698023	-0.3758857141475075	1.363834285842501	-0.04771844106954966	0.4322722190920679	-0.6765545689085756	1.612191869946435	1.61219186994644	-0.05537272798375667	-0.00204066971670677	0.5044853143818401	0.09539236144801048	-0.1786574347902322	0.001622885245501946	0.03351080712117246	-0.2979687387562459	-0.01858506521995086	-0.008054710549096874	0.2356849258842917	-9.69693152603457	-50.05942092474972	-10.33512664278922	-0.1326912387564921	-1.163145715894404	-662.1536366240385	64.81207312425703	0.2105916228999127	0.4560644654529712	-0.09121157289389271	-1.477757207807332	0.1572332368819237	-0.2289604125461238	1.726596891931289	-1.745112127261948	-1.745112127261952	0.4543283984665279	-0.007353063490866104	-0.5331932984541142	0.1160268631521212	-2.635081946929517e-08	3.527814789769406e-08	7.456647629811803e-07	2.00002012913525e-08	-1.00458224801775e-07	-3.735407700127924e-08	5.114142735835781e-07
